<svg width="2888" height="468" viewBox="0 0 2888 468" fill="none" xmlns="http://www.w3.org/2000/svg">
<g clip-path="url(#clip0_21_70)">
<path d="M425.1 404L507.9 89H611.4L694.2 404H633L615.9 334.7H503.4L486.3 404H425.1ZM517.35 279.8H601.95L563.7 126.35H555.6L517.35 279.8ZM725.905 404V89H862.705C882.505 89 899.755 92.45 914.455 99.35C929.155 106.25 940.555 116 948.655 128.6C956.755 141.2 960.805 156.05 960.805 173.15V178.55C960.805 197.45 956.305 212.75 947.305 224.45C938.305 236.15 927.205 244.7 914.005 250.1V258.2C926.005 258.8 935.305 263 941.905 270.8C948.505 278.3 951.805 288.35 951.805 300.95V404H892.405V309.5C892.405 302.3 890.455 296.45 886.555 291.95C882.955 287.45 876.805 285.2 868.105 285.2H785.305V404H725.905ZM785.305 231.2H856.405C870.505 231.2 881.455 227.45 889.255 219.95C897.355 212.15 901.405 201.95 901.405 189.35V184.85C901.405 172.25 897.505 162.2 889.705 154.7C881.905 146.9 870.805 143 856.405 143H785.305V231.2ZM1004.23 404V89H1063.63V214.1H1071.73L1173.88 89H1249.93L1118.53 244.25L1254.43 404H1176.13L1071.73 276.2H1063.63V404H1004.23ZM1385.76 410.3C1361.46 410.3 1340.01 405.95 1321.41 397.25C1302.81 388.55 1288.26 376.1 1277.76 359.9C1267.26 343.7 1262.01 324.2 1262.01 301.4V288.8H1320.51V301.4C1320.51 320.3 1326.36 334.55 1338.06 344.15C1349.76 353.45 1365.66 358.1 1385.76 358.1C1406.16 358.1 1421.31 354.05 1431.21 345.95C1441.41 337.85 1446.51 327.5 1446.51 314.9C1446.51 306.2 1443.96 299.15 1438.86 293.75C1434.06 288.35 1426.86 284 1417.26 280.7C1407.96 277.1 1396.56 273.8 1383.06 270.8L1372.71 268.55C1351.11 263.75 1332.51 257.75 1316.91 250.55C1301.61 243.05 1289.76 233.3 1281.36 221.3C1273.26 209.3 1269.21 193.7 1269.21 174.5C1269.21 155.3 1273.71 138.95 1282.71 125.45C1292.01 111.65 1304.91 101.15 1321.41 93.95C1338.21 86.45 1357.86 82.7 1380.36 82.7C1402.86 82.7 1422.81 86.6 1440.21 94.4C1457.91 101.9 1471.71 113.3 1481.61 128.6C1491.81 143.6 1496.91 162.5 1496.91 185.3V198.8H1438.41V185.3C1438.41 173.3 1436.01 163.7 1431.21 156.5C1426.71 149 1420.11 143.6 1411.41 140.3C1402.71 136.7 1392.36 134.9 1380.36 134.9C1362.36 134.9 1349.01 138.35 1340.31 145.25C1331.91 151.85 1327.71 161 1327.71 172.7C1327.71 180.5 1329.66 187.1 1333.56 192.5C1337.76 197.9 1343.91 202.4 1352.01 206C1360.11 209.6 1370.46 212.75 1383.06 215.45L1393.41 217.7C1415.91 222.5 1435.41 228.65 1451.91 236.15C1468.71 243.65 1481.76 253.55 1491.06 265.85C1500.36 278.15 1505.01 293.9 1505.01 313.1C1505.01 332.3 1500.06 349.25 1490.16 363.95C1480.56 378.35 1466.76 389.75 1448.76 398.15C1431.06 406.25 1410.06 410.3 1385.76 410.3ZM1546.31 404V89H1675.91C1695.71 89 1713.11 93.05 1728.11 101.15C1743.41 108.95 1755.26 120.05 1763.66 134.45C1772.36 148.85 1776.71 165.95 1776.71 185.75V192.05C1776.71 211.55 1772.21 228.65 1763.21 243.35C1754.51 257.75 1742.51 269 1727.21 277.1C1712.21 284.9 1695.11 288.8 1675.91 288.8H1605.71V404H1546.31ZM1605.71 234.8H1670.06C1684.16 234.8 1695.56 230.9 1704.26 223.1C1712.96 215.3 1717.31 204.65 1717.31 191.15V186.65C1717.31 173.15 1712.96 162.5 1704.26 154.7C1695.56 146.9 1684.16 143 1670.06 143H1605.71V234.8ZM1814.89 404V89H1874.29V219.05H1991.29V89H2050.69V404H1991.29V273.05H1874.29V404H1814.89ZM2107.2 404V89H2309.7V143H2166.6V218.15H2297.1V272.15H2166.6V350H2312.4V404H2107.2ZM2353.37 404V89H2490.17C2509.97 89 2527.22 92.45 2541.92 99.35C2556.62 106.25 2568.02 116 2576.12 128.6C2584.22 141.2 2588.27 156.05 2588.27 173.15V178.55C2588.27 197.45 2583.77 212.75 2574.77 224.45C2565.77 236.15 2554.67 244.7 2541.47 250.1V258.2C2553.47 258.8 2562.77 263 2569.37 270.8C2575.97 278.3 2579.27 288.35 2579.27 300.95V404H2519.87V309.5C2519.87 302.3 2517.92 296.45 2514.02 291.95C2510.42 287.45 2504.27 285.2 2495.57 285.2H2412.77V404H2353.37ZM2412.77 231.2H2483.87C2497.97 231.2 2508.92 227.45 2516.72 219.95C2524.82 212.15 2528.87 201.95 2528.87 189.35V184.85C2528.87 172.25 2524.97 162.2 2517.17 154.7C2509.37 146.9 2498.27 143 2483.87 143H2412.77V231.2ZM2634.7 404V89H2837.2V143H2694.1V218.15H2824.6V272.15H2694.1V350H2839.9V404H2634.7Z" fill="#515151"/>
<path d="M227.212 74.6329C226.896 74.224 59.7095 289.418 59.7095 289.418C61.719 287.995 223.967 173.713 225.982 172.298C225.982 172.298 390.86 287.706 392.859 289.113C302.178 172.298 227.212 74.6329 227.212 74.6329Z" fill="#525252"/>
<path d="M126.249 403.968L58.6533 314.379H393.764L326.169 403.968H126.249Z" fill="#515151"/>
<path d="M58.6533 314.379L219.947 201.974L138.923 314.379H58.6533Z" fill="#454545"/>
<path d="M313.645 314.379L232.47 201.974L393.764 314.379H313.645Z" fill="#454545"/>
</g>
<defs>
<clipPath id="clip0_21_70">
<rect width="2888" height="468" fill="white"/>
</clipPath>
</defs>
</svg>
